<?xml version="1.0" encoding="UTF-8"?>
<svg version="1.1" xmlns="http://www.w3.org/2000/svg" width="512" height="512">
<path d="M0 0 C1.19882812 0.0309375 1.19882812 0.0309375 2.421875 0.0625 C10.2133416 2.64530661 14.3224573 9.17813713 17.9222276 16.18339078 C18.92239216 18.17818034 19.90468155 20.18121919 20.88694763 22.18487549 C21.61757199 23.64147811 22.34977767 25.09728842 23.08341748 26.5523746 C25.08630949 30.53617168 27.06667589 34.53079906 29.04343212 38.52761459 C31.18229102 42.84222876 33.34200804 47.14638553 35.49916077 51.45187378 C39.71757679 59.87952742 43.91692837 68.31654283 48.11014556 76.75675729 C52.99267759 86.58230663 57.89525283 96.39780637 62.79898775 106.21278629 C71.54488817 123.71939862 80.27439798 141.2341309 88.99389648 158.75390625 C97.45936579 175.76319519 105.93351463 192.76811616 114.41870117 209.76757812 C114.9417452 210.81546529 115.46478923 211.86335246 116.00368308 212.94299379 C118.10597697 217.15473795 120.20831824 221.36645845 122.31072566 225.57814594 C138.40684668 257.82349508 154.49552318 290.0725946 170.55658531 322.33542252 C172.24364895 325.72419829 173.93161137 329.11252391 175.62038803 332.50044632 C177.56051351 336.39273651 179.49876591 340.28595326 181.43546654 344.17994866 C182.1384611 345.59264015 182.84212269 347.00499993 183.54649787 348.41700354 C184.49971249 350.32812847 185.45049655 352.24044276 186.40064144 354.15309525 C186.93057136 355.21745403 187.46050129 356.28181281 188.00648969 357.37842488 C190.63075443 362.91091392 190.87345263 367.95597311 190.25 374 C188.06473658 378.45146251 185.3105479 381.18885145 181.25 384 C176.02690967 385.74103011 171.2022819 385.70074097 166.125 383.625 C157.30406828 378.50334201 153.36756674 365.51809952 148.967453 356.68214417 C148.24973597 355.24830099 147.53166881 353.81463303 146.8132847 352.38112396 C144.85271016 348.46635188 142.89709604 344.54912047 140.9423281 340.63144648 C138.82872303 336.39763108 136.71048365 332.16613507 134.59283447 327.93434143 C130.45107821 319.65585904 126.31358284 311.37525422 122.17754557 303.09391332 C117.36154888 293.45151925 112.54135768 283.81122414 107.72100595 274.17100667 C99.12361892 256.97673272 90.53009301 239.78053193 81.9387207 222.58325195 C73.59852834 205.88876411 65.2555228 189.19568613 56.90942383 172.50415039 C56.39481534 171.47497337 55.88020685 170.44579634 55.35000416 169.38543213 C54.83629048 168.35804513 54.3225768 167.33065812 53.79329604 166.27213818 C44.29185408 147.26994347 34.7930418 128.26643531 25.29545924 109.26231136 C21.93465393 102.53768145 18.57306525 95.81344349 15.21123314 89.08932686 C11.11886578 80.90391113 7.02800676 72.71774358 2.93904831 64.5306244 C0.8518291 60.35155952 -1.23602593 56.17281557 -3.32559776 51.99492645 C-5.23615445 48.17490459 -7.14487459 44.35397112 -9.05209538 40.5322827 C-9.74436825 39.1459173 -10.43732212 37.7598917 -11.13100479 36.37423117 C-12.06981073 34.49867223 -13.00617431 32.62191426 -13.94190693 30.74482059 C-14.46380771 29.70031461 -14.98570849 28.65580862 -15.52342445 27.57965094 C-18.1433614 22.06957633 -18.37097311 17.01998934 -17.75 11 C-15.57211093 6.5635593 -12.83564574 3.75781087 -8.75 1 C-5.76944096 0.02943981 -3.12400755 -0.1591851 0 0 Z " fill="#FFFFFF" transform="translate(257.75,62)"/>
<path d="M0 0 C4.98017303 2.31222319 7.28773317 5.29643973 10 10 C10.50139666 13.07226562 10.50139666 13.07226562 10.50336456 16.40625 C10.51379555 17.68245209 10.52422654 18.95865417 10.53497362 20.27352905 C10.52632615 21.68235499 10.51729956 23.09117865 10.50793457 24.5 C10.51254453 26.00233566 10.51889808 27.50466681 10.52684355 29.00698853 C10.54354719 33.13214446 10.53528592 37.25693041 10.52289867 41.38208771 C10.51385471 45.83206188 10.52781466 50.28197209 10.53881836 54.73193359 C10.55661516 63.44815467 10.55275843 72.16423806 10.5411678 80.88046455 C10.53213832 87.96361548 10.53090737 95.04672779 10.53526306 102.12988281 C10.53587599 103.13756903 10.53648893 104.14525524 10.53712043 105.1834774 C10.53839932 107.23050182 10.53969617 109.27752623 10.5410108 111.32455063 C10.55242 130.52450091 10.53929755 149.72437483 10.51780933 168.92431259 C10.49993805 185.40270497 10.50304206 201.88098465 10.52148438 218.359375 C10.54288508 237.49010067 10.55132133 256.62075939 10.53903532 275.75149536 C10.53776111 277.79103596 10.53650363 279.83057657 10.53526306 281.87011719 C10.53464596 282.87363913 10.53402886 283.87716106 10.53339306 284.91109276 C10.52993776 291.98664327 10.53577238 299.06215137 10.54518127 306.13769531 C10.55639374 314.75914265 10.55337705 323.3804443 10.5320583 332.00187492 C10.52153774 336.40162043 10.51744312 340.80112293 10.53065491 345.2008667 C10.54256392 349.22763187 10.53604119 353.2539285 10.5147447 357.28065109 C10.51027227 358.73816845 10.51255933 360.1957253 10.52224785 361.65321732 C10.53440215 363.63336758 10.51954901 365.61362857 10.50336456 367.59375 C10.50271515 368.69396484 10.50206574 369.79417969 10.50139666 370.92773438 C9.69340866 375.87861255 7.06941907 378.98405188 3.5 382.375 C-1.66500009 384.77303575 -6.4002288 384.75381535 -12 384 C-16.90803765 381.72126823 -19.6874128 378.88212854 -22 374 C-23.29078685 364.87321817 -23.14656166 355.55934048 -23.14044189 346.36175537 C-23.14303261 344.92976816 -23.14604771 343.49778166 -23.1494453 342.06579614 C-23.15743429 338.16759497 -23.15930027 334.26941228 -23.16004276 330.3712039 C-23.16190736 326.15308365 -23.1694611 321.9349727 -23.17617798 317.71685791 C-23.18969929 308.51483888 -23.19577496 299.31282424 -23.20018864 290.11079693 C-23.20295894 284.36121975 -23.20719745 278.61164423 -23.21169281 272.86206818 C-23.22387235 256.92811565 -23.2341775 240.99416444 -23.2375679 225.06020737 C-23.23778747 224.0426345 -23.23800703 223.02506164 -23.23823325 221.97665323 C-23.23845153 220.95674566 -23.23866981 219.9368381 -23.2388947 218.88602424 C-23.23933816 216.81952397 -23.23978472 214.7530237 -23.24023438 212.68652344 C-23.2404558 211.66148304 -23.24067723 210.63644264 -23.24090537 209.58034042 C-23.24485856 192.94885422 -23.26233432 176.31741169 -23.2855939 159.68594238 C-23.30930707 142.59178804 -23.32176956 125.49765564 -23.32293582 108.40348458 C-23.32385206 98.81296925 -23.32959248 89.22251101 -23.34775543 79.63201141 C-23.36315522 71.47235096 -23.3682772 63.31276529 -23.36001733 55.15309307 C-23.35611178 50.99193384 -23.35703615 46.83092523 -23.37107468 42.66978455 C-23.38381756 38.85787308 -23.38261286 35.04622536 -23.37048396 31.23431423 C-23.3676039 29.2085397 -23.37945914 27.18276058 -23.39190602 25.15702224 C-23.30794307 9.67438196 -23.30794307 9.67438196 -18.54806638 4.38722777 C-12.68107727 -0.66618098 -7.50801727 -0.69773459 0 0 Z " fill="#FFFFFF" transform="translate(198,64)"/>
<path d="M0 0 C4.96959917 2.3073139 7.37866812 5.24437237 10 10 C10.58544131 12.99782153 10.60008275 15.93834153 10.60223389 18.98655701 C10.61825795 19.88898593 10.63428201 20.79141484 10.65079165 21.72119009 C10.69919313 24.7691975 10.71848699 27.81666605 10.73730469 30.86499023 C10.76476663 33.08416275 10.79352745 35.30331951 10.82346725 37.52245998 C10.91508758 45.01483213 10.95961184 52.50720247 11 60 C11.01221298 62.00643235 11.02442646 64.01286469 11.03671028 66.01929661 C11.15936777 86.40256225 11.18896446 106.78581492 11.20018864 127.16940236 C11.20299934 132.21882109 11.20724238 137.26823805 11.21169281 142.31765556 C11.22380696 156.38045281 11.23414048 170.44324872 11.2375679 184.50605106 C11.23789725 185.83800874 11.23789725 185.83800874 11.23823325 187.19687464 C11.23856067 188.53120683 11.23856067 188.53120683 11.2388947 189.89249521 C11.23933811 191.69387376 11.23978468 193.49525231 11.24023438 195.29663086 C11.2404558 196.19009495 11.24067723 197.08355905 11.24090537 198.00409781 C11.24488502 212.59951164 11.26246913 227.19487655 11.2855939 241.79027135 C11.30930361 256.87869523 11.32176854 271.96709436 11.32293582 287.05553716 C11.32384954 295.4874366 11.32953093 303.919271 11.34775543 312.35115242 C11.36314684 319.49432993 11.36828019 326.637422 11.36001733 333.78061295 C11.35611579 337.41749351 11.35701837 341.05420175 11.37107468 344.69106102 C11.38618109 348.63522504 11.3779388 352.57914725 11.36749268 356.52333069 C11.37554908 357.66531215 11.38360548 358.80729362 11.39190602 359.98388058 C11.35024788 366.70657428 11.28490432 374.33659465 6.54806638 379.61923176 C1.34181661 384.08264564 -2.34527101 384.34915378 -9.015625 384.27734375 C-13.04015882 383.90333603 -15.08009163 382.77391295 -18 380 C-21.30484998 375.7257499 -22.50018006 372.98886189 -22.50336456 367.59375 C-22.51379555 366.31754791 -22.52422654 365.04134583 -22.53497362 363.72647095 C-22.52632615 362.31764501 -22.51729956 360.90882135 -22.50793457 359.5 C-22.51254453 357.99766434 -22.51889808 356.49533319 -22.52684355 354.99301147 C-22.54354719 350.86785554 -22.53528592 346.74306959 -22.52289867 342.61791229 C-22.51385471 338.16793812 -22.52781466 333.71802791 -22.53881836 329.26806641 C-22.55661516 320.55184533 -22.55275843 311.83576194 -22.5411678 303.11953545 C-22.53213832 296.03638452 -22.53090737 288.95327221 -22.53526306 281.87011719 C-22.53587599 280.86243097 -22.53648893 279.85474476 -22.53712043 278.8165226 C-22.53839932 276.76949818 -22.53969617 274.72247377 -22.5410108 272.67544937 C-22.55242 253.47549909 -22.53929755 234.27562517 -22.51780933 215.07568741 C-22.49993805 198.59729503 -22.50304206 182.11901535 -22.52148438 165.640625 C-22.54288508 146.50989933 -22.55132133 127.37924061 -22.53903532 108.24850464 C-22.53776111 106.20896404 -22.53650363 104.16942343 -22.53526306 102.12988281 C-22.53464596 101.12636087 -22.53402886 100.12283894 -22.53339306 99.08890724 C-22.52993776 92.01335673 -22.53577238 84.93784863 -22.54518127 77.86230469 C-22.55639374 69.24085735 -22.55337705 60.6195557 -22.5320583 51.99812508 C-22.52153774 47.59837957 -22.51744312 43.19887707 -22.53065491 38.7991333 C-22.54256392 34.77236813 -22.53604119 30.7460715 -22.5147447 26.71934891 C-22.51027227 25.26183155 -22.51255933 23.8042747 -22.52224785 22.34678268 C-22.53440215 20.36663242 -22.51954901 18.38637143 -22.50336456 16.40625 C-22.50271515 15.30603516 -22.50206574 14.20582031 -22.50139666 13.07226562 C-21.69340866 8.12138745 -19.06941907 5.01594812 -15.5 1.625 C-10.33499991 -0.77303575 -5.5997712 -0.75381535 0 0 Z " fill="#FFFFFF" transform="translate(86,64)"/>
</svg>
